<?xml version="1.0" encoding="UTF-8"?>
<!DOCTYPE svg PUBLIC "-//W3C//DTD SVG 1.1//EN" "http://www.w3.org/Graphics/SVG/1.1/DTD/svg11.dtd">
<!-- Creator: CorelDRAW 2018 -->
<svg xmlns="http://www.w3.org/2000/svg" xml:space="preserve" width="96px" height="136px" version="1.1" style="shape-rendering:geometricPrecision; text-rendering:geometricPrecision; image-rendering:optimizeQuality; fill-rule:evenodd; clip-rule:evenodd"
viewBox="0 0 96 135.77"
 xmlns:xlink="http://www.w3.org/1999/xlink">
 <defs>
  <style type="text/css">
   <![CDATA[
    .fil0 {fill:red}
   ]]>
  </style>
 </defs>
 <g id="Layer_x0020_1">
  <metadata id="CorelCorpID_0Corel-Layer"/>
  <path class="fil0" d="M50.92 65.11l-0.76 0 0 -0.46c0,-0.08 -0.07,-0.15 -0.16,-0.15l-4.62 0c-0.08,0 -0.15,0.07 -0.15,0.15l0 0.77 -0.15 0c-0.09,0 -0.16,0.07 -0.16,0.16 0,0.08 0.07,0.15 0.16,0.15l0.15 0 0 0.62 -0.15 0c-0.09,0 -0.16,0.07 -0.16,0.15 0,0.09 0.07,0.15 0.16,0.15l0.15 0 0 0.62 -0.15 0c-0.09,0 -0.16,0.07 -0.16,0.15 0,0.09 0.07,0.16 0.16,0.16l0.15 0 0 0.61 -0.15 0c-0.09,0 -0.16,0.07 -0.16,0.16 0,0.08 0.07,0.15 0.16,0.15l0.15 0 0 0.62 -0.15 0c-0.09,0 -0.16,0.07 -0.16,0.15 0,0.09 0.07,0.16 0.16,0.16l0.15 0 0 0.61 -0.15 0c-0.09,0 -0.16,0.07 -0.16,0.16 0,0.08 0.07,0.15 0.16,0.15l0.15 0 0 0.77c0,0.08 0.07,0.15 0.15,0.15l4.62 0c0.09,0 0.16,-0.07 0.16,-0.15l0 -0.77 0.76 0c0.09,0 0.16,-0.07 0.16,-0.15l0 -1.24 0 -1.23 0 -1.23 0 -1.23c0,-0.09 -0.07,-0.16 -0.16,-0.16zm-1.07 0.16l0 1.23 0 1.23 0 1.23 0 1.23 0 0.77 -4.31 0 0 -0.61 0.15 0c0.09,0 0.15,-0.07 0.15,-0.16 0,-0.08 -0.06,-0.15 -0.15,-0.15l-0.15 0 0 -0.61 0.15 0c0.09,0 0.15,-0.07 0.15,-0.16 0,-0.08 -0.06,-0.15 -0.15,-0.15l-0.15 0 0 -0.62 0.15 0c0.09,0 0.15,-0.07 0.15,-0.15 0,-0.09 -0.06,-0.16 -0.15,-0.16l-0.15 0 0 -0.61 0.15 0c0.09,0 0.15,-0.07 0.15,-0.16 0,-0.08 -0.06,-0.15 -0.15,-0.15l-0.15 0 0 -0.62 0.15 0c0.09,0 0.15,-0.06 0.15,-0.15 0,-0.08 -0.06,-0.15 -0.15,-0.15l-0.15 0 0 -0.62 0.15 0c0.09,0 0.15,-0.07 0.15,-0.15 0,-0.09 -0.06,-0.16 -0.15,-0.16l-0.15 0 0 -0.61 4.31 0 0 0.46 0 0zm0.92 4.77l-0.61 0 0 -0.92 0.61 0 0 0.92zm0 -1.23l-0.61 0 0 -0.92 0.61 0 0 0.92zm0 -1.23l-0.61 0 0 -0.93 0.61 0 0 0.93zm0 -1.23l-0.61 0 0 -0.93 0.61 0 0 0.93zm-3.85 0.92l1.85 0c0.08,0 0.15,-0.07 0.15,-0.15l0 -1.24c0,-0.08 -0.07,-0.15 -0.15,-0.15l-1.85 0c-0.08,0 -0.15,0.07 -0.15,0.15l0 1.24c0,0.08 0.07,0.15 0.15,0.15zm0.16 -1.23l1.54 0 0 0.92 -1.54 0 0 -0.92z"/>
 </g>
</svg>
