<?xml version="1.0" encoding="UTF-8"?>
<!DOCTYPE svg PUBLIC "-//W3C//DTD SVG 1.1//EN" "http://www.w3.org/Graphics/SVG/1.1/DTD/svg11.dtd">
<!-- Creator: CorelDRAW 2018 -->
<svg xmlns="http://www.w3.org/2000/svg" xml:space="preserve" width="69px" height="98px" version="1.1" style="shape-rendering:geometricPrecision; text-rendering:geometricPrecision; image-rendering:optimizeQuality; fill-rule:evenodd; clip-rule:evenodd"
viewBox="0 0 69 97.59"
 xmlns:xlink="http://www.w3.org/1999/xlink">
 <defs>
  <style type="text/css">
   <![CDATA[
    .fil0 {fill:red}
   ]]>
  </style>
 </defs>
 <g id="Layer_x0020_1">
  <metadata id="CorelCorpID_0Corel-Layer"/>
  <path class="fil0" d="M37.91 48.79l-0.28 0 0 -0.83c0,-0.15 -0.12,-0.27 -0.27,-0.27l-0.16 0 0.71 -1.88c0.55,-0.09 0.96,-0.58 1.05,-1.29 0.1,-0.91 -0.35,-2.02 -1.61,-2.33 -0.11,-0.03 -0.22,0.02 -0.29,0.11 -0.06,0.09 -0.06,0.22 0,0.31 0.29,0.45 0.11,0.71 -0.2,1.11 -0.12,0.15 -0.23,0.29 -0.3,0.45 -0.13,0.31 -0.13,0.63 -0.02,0.91 0.06,0.13 0.14,0.25 0.25,0.35l-1.26 2.26 -0.11 0 0 -5.26c0,-0.16 -0.13,-0.28 -0.28,-0.28l-2.21 0c-0.16,0 -0.28,0.12 -0.28,0.28l0 5.26 -0.11 0 -1.31 -2.35c0,-0.01 -0.01,-0.01 -0.01,-0.02 0,0 -0.01,-0.01 -0.01,-0.02 -0.02,-0.02 -0.05,-0.04 -0.07,-0.06 -0.01,0 -0.01,-0.01 -0.01,-0.01l0 0c0,0 0,0 0,0l-1.38 -0.83c-0.1,-0.05 -0.21,-0.05 -0.3,0.01 -0.09,0.06 -0.14,0.17 -0.12,0.28l0.28 1.66c0,0 0,0 0,0.01 0,0.01 0.01,0.02 0.01,0.03 0,0.01 0.01,0.02 0.01,0.04l0.63 1.26 -0.1 0c-0.16,0 -0.28,0.12 -0.28,0.27l0 6.09c0,0.77 0.62,1.39 1.39,1.39l4.98 0c0.76,0 1.38,-0.62 1.38,-1.39l0 -1.38 0.28 0c1.07,0 1.94,-0.87 1.94,-1.94 0,-1.07 -0.87,-1.94 -1.94,-1.94zm-0.84 -4.4c0.04,-0.1 0.13,-0.21 0.23,-0.33 0.21,-0.27 0.49,-0.63 0.46,-1.1 0.52,0.36 0.71,0.97 0.65,1.49 -0.05,0.38 -0.25,0.82 -0.67,0.82 -0.1,0 -0.21,-0.02 -0.32,-0.07 -0.18,-0.07 -0.31,-0.19 -0.37,-0.33 -0.06,-0.15 -0.05,-0.31 0.02,-0.48zm0.18 1.34c0.03,0.01 0.06,0.02 0.09,0.03l-0.73 1.93 -0.44 0 1.08 -1.96zm-4.05 -3.03l1.66 0 0 0.56 -0.83 0c-0.15,0 -0.27,0.12 -0.27,0.27 0,0.16 0.12,0.28 0.27,0.28l0.83 0 0 0.55 -0.27 0c-0.16,0 -0.28,0.13 -0.28,0.28 0,0.15 0.12,0.28 0.28,0.28l0.27 0 0 0.55 -0.83 0c-0.15,0 -0.27,0.12 -0.27,0.28 0,0.15 0.12,0.27 0.27,0.27l0.83 0 0 0.56 -0.27 0c-0.16,0 -0.28,0.12 -0.28,0.27 0,0.16 0.12,0.28 0.28,0.28l0.27 0 0 0.56 -1.66 0 0 -4.99zm-2.71 2.8l-0.41 0.31 -0.1 -0.62 0.51 0.31zm-0.26 0.88l0.67 -0.5 1 1.81 -1.02 0 -0.65 -1.31zm6.85 7.67c0,0.46 -0.37,0.83 -0.83,0.83l-4.99 0c-0.45,0 -0.83,-0.37 -0.83,-0.83l0 -5.81 0.28 0 1.66 0 0.01 0 0.55 0 2.21 0 1.94 0 0 5.81 0 0zm0.83 -1.93l-0.28 0 0 -2.77 0.28 0c0.76,0 1.38,0.62 1.38,1.38 0,0.76 -0.62,1.39 -1.38,1.39z"/>
 </g>
</svg>
